# Blender 4.4.1
# www.blender.org
o Cube
v -1.000000 -1.000000 1.000000
v -1.000000 1.000000 1.000000
v -1.000000 -1.000000 -1.000000
v -1.000000 1.000000 -1.000000
v 1.000000 -1.000000 1.000000
v 1.000000 1.000000 1.000000
v 1.000000 -1.000000 -1.000000
v 1.000000 1.000000 -1.000000
vn -1.0000 -0.0000 -0.0000
vn -0.0000 -0.0000 -1.0000
vn 1.0000 -0.0000 -0.0000
vn -0.0000 -0.0000 1.0000
vn -0.0000 -1.0000 -0.0000
vn -0.0000 1.0000 -0.0000
vt 0.999988 0.333359
vt 0.999996 0.666660
vt 0.760698 0.666574
vt 0.761054 0.333380
vt 0.499960 0.666598
vt 0.499982 0.333390
vt 0.499374 0.333170
vt 0.250068 0.666617
vt 0.250025 0.333378
vt 0.000028 0.666597
vt 0.000040 0.333411
vt 0.499914 0.000113
vt 0.250049 0.000061
vt 0.499970 0.999967
vt 0.250069 0.999944
s 0
f 1/1/1 2/2/1 4/3/1 3/4/1
f 3/4/2 4/3/2 8/5/2 7/6/2
f 7/7/3 8/5/3 6/8/3 5/9/3
f 5/9/4 6/8/4 2/10/4 1/11/4
f 3/12/5 7/6/5 5/9/5 1/13/5
f 8/5/6 4/14/6 2/15/6 6/8/6
