# Blender 4.4.1
# www.blender.org
o Cube
v -1.000000 -0.519870 6.212411
v -1.000000 0.519870 6.212411
v -1.000000 -0.519870 -6.212411
v -1.000000 0.519870 -6.212411
v 1.000000 -0.519870 6.212411
v 1.000000 0.519870 6.212411
v 1.000000 -0.519870 -6.212411
v 1.000000 0.519870 -6.212411
vn -1.0000 -0.0000 -0.0000
vn -0.0000 -0.0000 -1.0000
vn 1.0000 -0.0000 -0.0000
vn -0.0000 -0.0000 1.0000
vn -0.0000 -1.0000 -0.0000
vn -0.0000 1.0000 -0.0000
vt 0.009569 0.003289
vt 0.488038 0.003289
vt 0.488038 0.996711
vt 0.009569 0.996711
vt 0.985646 0.911184
vt 0.985646 0.995066
vt 0.516746 0.995066
vt 0.516746 0.911184
vt 0.009569 0.004934
vt 0.488038 0.004934
s 0
f 1/1/1 2/2/1 4/3/1 3/4/1
f 3/5/2 4/6/2 8/7/2 7/8/2
f 7/9/3 8/10/3 6/3/3 5/4/3
f 5/5/4 6/6/4 2/7/4 1/8/4
f 3/1/5 7/2/5 5/3/5 1/4/5
f 8/1/6 4/2/6 2/3/6 6/4/6
