# Blender 4.4.1
# www.blender.org
o Cube.001
v -73.022743 -0.400000 -36.558678
v -73.022743 0.000000 -36.558678
v -73.022743 -0.400000 -54.135521
v -73.022743 0.000000 -54.135521
v 3.413544 -0.400000 -36.558678
v 3.413544 0.000000 -36.558678
v 3.413544 -0.400000 -54.135521
v 3.413544 0.000000 -54.135521
vn -1.0000 -0.0000 -0.0000
vn -0.0000 -0.0000 -1.0000
vn 1.0000 -0.0000 -0.0000
vn -0.0000 -0.0000 1.0000
vn -0.0000 -1.0000 -0.0000
vn -0.0000 1.0000 -0.0000
vt 0.444345 0.296230
vt 0.296230 0.296230
vt 0.296230 0.148115
vt 0.444345 0.148115
vt 0.296230 0.444345
vt 0.148115 0.444345
vt 0.148115 0.296230
vt 0.296230 0.296230
vt 0.444345 0.444345
vt 0.296230 0.444345
vt 0.296230 0.296230
vt 0.444345 0.296230
vt 0.148115 0.592460
vt -0.000000 0.592460
vt 0.000000 0.444345
vt 0.148115 0.444345
vt 0.592460 0.000000
vt 0.592460 0.148115
vt 0.444345 0.148115
vt 0.444345 0.000000
vt 0.296230 0.444345
vt 0.296230 0.592460
vt 0.148115 0.592460
vt 0.148115 0.444345
s 0
f 1/1/1 2/2/1 4/3/1 3/4/1
f 3/5/2 4/6/2 8/7/2 7/8/2
f 7/9/3 8/10/3 6/11/3 5/12/3
f 5/13/4 6/14/4 2/15/4 1/16/4
f 3/17/5 7/18/5 5/19/5 1/20/5
f 8/21/6 4/22/6 2/23/6 6/24/6
o Cube.002
v -73.022743 5.825974 -1.780149
v -73.022743 5.825974 -1.380149
v -73.022743 14.851976 -1.780149
v -73.022743 14.851976 -1.380149
v 3.413544 5.825974 -1.780149
v 3.413544 5.825974 -1.380149
v 3.413544 14.851976 -1.780149
v 3.413544 14.851976 -1.380149
vn -1.0000 -0.0000 -0.0000
vn -0.0000 1.0000 -0.0000
vn 1.0000 -0.0000 -0.0000
vn -0.0000 -1.0000 -0.0000
vn -0.0000 -0.0000 -1.0000
vn -0.0000 -0.0000 1.0000
vt 0.148115 0.148115
vt 0.000000 0.148115
vt 0.000000 0.000000
vt 0.148115 0.000000
vt 0.148115 0.296230
vt 0.000000 0.296230
vt 0.000000 0.148115
vt 0.148115 0.148115
vt 0.296230 0.148115
vt 0.148115 0.148115
vt 0.148115 0.000000
vt 0.296230 0.000000
vt 0.296230 0.296230
vt 0.148115 0.296230
vt 0.148115 0.148115
vt 0.296230 0.148115
vt 0.148115 0.296230
vt 0.148115 0.444345
vt 0.000000 0.444345
vt 0.000000 0.296230
vt 0.444345 0.000000
vt 0.444345 0.148115
vt 0.296230 0.148115
vt 0.296230 0.000000
s 0
f 9/25/7 10/26/7 12/27/7 11/28/7
f 11/29/8 12/30/8 16/31/8 15/32/8
f 15/33/9 16/34/9 14/35/9 13/36/9
f 13/37/10 14/38/10 10/39/10 9/40/10
f 11/41/11 15/42/11 13/43/11 9/44/11
f 16/45/12 12/46/12 10/47/12 14/48/12
o Cube.003
v -73.281059 14.852715 -54.135513
v -72.881058 14.852715 -54.135513
v -73.281059 -0.167416 -54.135513
v -72.881058 -0.167416 -54.135513
v -73.281052 14.852715 3.307491
v -72.881050 14.852715 3.307491
v -73.281052 -0.167416 3.307491
v -72.881050 -0.167416 3.307491
vn -0.0000 -0.0000 -1.0000
vn -0.0000 -1.0000 -0.0000
vn -0.0000 -0.0000 1.0000
vn -0.0000 1.0000 -0.0000
vn -1.0000 -0.0000 -0.0000
vn 1.0000 -0.0000 -0.0000
vt 0.592460 0.296230
vt 0.444345 0.296230
vt 0.444345 0.148115
vt 0.592460 0.148115
vt 0.740574 0.740575
vt 0.740574 0.592460
vt 0.851885 0.592460
vt 0.851885 0.740575
vt 0.444345 0.592460
vt 0.296230 0.592460
vt 0.296230 0.444345
vt 0.444345 0.444345
vt 0.740575 0.888690
vt 0.740575 0.740575
vt 0.851885 0.740576
vt 0.851885 0.888690
vt 1.000000 0.148115
vt 0.888689 0.148115
vt 0.888689 0.000000
vt 1.000000 0.000000
vt 1.000000 0.296230
vt 0.888689 0.296230
vt 0.888689 0.148115
vt 1.000000 0.148115
s 0
f 17/49/13 18/50/13 20/51/13 19/52/13
f 19/53/14 20/54/14 24/55/14 23/56/14
f 23/57/15 24/58/15 22/59/15 21/60/15
f 21/61/16 22/62/16 18/63/16 17/64/16
f 19/65/17 23/66/17 21/67/17 17/68/17
f 24/69/18 20/70/18 18/71/18 22/72/18
o Cube.004
v 3.172689 14.852715 -54.135513
v 3.572689 14.852715 -54.135513
v 3.172690 -0.167416 -54.135513
v 3.572690 -0.167416 -54.135513
v 3.172695 14.852715 3.307491
v 3.572695 14.852715 3.307491
v 3.172696 -0.167416 3.307491
v 3.572696 -0.167416 3.307491
vn -0.0000 -0.0000 -1.0000
vn -0.0000 -1.0000 -0.0000
vn -0.0000 -0.0000 1.0000
vn -0.0000 1.0000 -0.0000
vn -1.0000 -0.0000 -0.0000
vn 1.0000 -0.0000 -0.0000
vt 0.592460 0.444345
vt 0.444345 0.444345
vt 0.444345 0.296230
vt 0.592460 0.296230
vt 0.851885 0.740575
vt 0.851885 0.592460
vt 0.963196 0.592460
vt 0.963196 0.740575
vt 0.592460 0.592460
vt 0.444345 0.592460
vt 0.444345 0.444345
vt 0.592460 0.444345
vt 0.851885 0.888690
vt 0.851885 0.740575
vt 0.963196 0.740576
vt 0.963196 0.888690
vt 1.000000 0.444345
vt 0.888689 0.444345
vt 0.888689 0.296230
vt 1.000000 0.296230
vt 1.000000 0.592460
vt 0.888689 0.592460
vt 0.888689 0.444345
vt 1.000000 0.444345
s 0
f 25/73/19 26/74/19 28/75/19 27/76/19
f 27/77/20 28/78/20 32/79/20 31/80/20
f 31/81/21 32/82/21 30/83/21 29/84/21
f 29/85/22 30/86/22 26/87/22 25/88/22
f 27/89/23 31/90/23 29/91/23 25/92/23
f 32/93/24 28/94/24 26/95/24 30/96/24
o Cube.005
v -73.022743 -3.378654 3.326267
v -73.022743 -3.378654 3.726267
v -73.022743 2.790009 3.326267
v -73.022743 2.790009 3.726267
v 3.413544 -3.378654 3.326267
v 3.413544 -3.378654 3.726267
v 3.413544 2.790009 3.326267
v 3.413544 2.790009 3.726267
vn -1.0000 -0.0000 -0.0000
vn -0.0000 1.0000 -0.0000
vn 1.0000 -0.0000 -0.0000
vn -0.0000 -1.0000 -0.0000
vn -0.0000 -0.0000 -1.0000
vn -0.0000 -0.0000 1.0000
vt 0.148115 0.740575
vt 0.000000 0.740575
vt 0.000000 0.592460
vt 0.148115 0.592460
vt 0.740574 0.148115
vt 0.592460 0.148115
vt 0.592460 0.000000
vt 0.740575 0.000000
vt 0.740574 0.296230
vt 0.592460 0.296230
vt 0.592460 0.148115
vt 0.740574 0.148115
vt 0.296230 0.740575
vt 0.148115 0.740575
vt 0.148115 0.592460
vt 0.296230 0.592460
vt 0.444345 0.592460
vt 0.444345 0.740575
vt 0.296230 0.740575
vt 0.740574 0.296230
vt 0.740574 0.444345
vt 0.592460 0.444345
vt 0.592460 0.296230
s 0
f 33/97/25 34/98/25 36/99/25 35/100/25
f 35/101/26 36/102/26 40/103/26 39/104/26
f 39/105/27 40/106/27 38/107/27 37/108/27
f 37/109/28 38/110/28 34/111/28 33/112/28
f 35/113/29 39/114/29 37/115/29 33/112/29
f 40/116/30 36/117/30 34/118/30 38/119/30
o Cube.006
v -73.022743 -0.385608 -54.322723
v -73.022743 -0.385608 -53.922722
v -73.022743 14.832263 -54.322723
v -73.022743 14.832263 -53.922722
v 3.413544 -0.385608 -54.322723
v 3.413544 -0.385608 -53.922722
v 3.413544 14.832263 -54.322723
v 3.413544 14.832263 -53.922722
vn -1.0000 -0.0000 -0.0000
vn -0.0000 1.0000 -0.0000
vn 1.0000 -0.0000 -0.0000
vn -0.0000 -1.0000 -0.0000
vn -0.0000 -0.0000 -1.0000
vn -0.0000 -0.0000 1.0000
vt 0.740575 0.592460
vt 0.592460 0.592460
vt 0.592460 0.444345
vt 0.740575 0.444345
vt 0.592460 0.740574
vt 0.444345 0.740574
vt 0.444345 0.592460
vt 0.592460 0.592460
vt 0.740575 0.740574
vt 0.740575 0.592460
vt 0.888689 0.148115
vt 0.740574 0.148115
vt 0.740575 0.000000
vt 0.888689 0.000000
vt 0.148115 0.740575
vt 0.148115 0.888689
vt 0.000000 0.888689
vt 0.000000 0.740575
vt 0.888689 0.148115
vt 0.888689 0.296230
vt 0.740574 0.296230
vt 0.740574 0.148115
s 0
f 41/120/31 42/121/31 44/122/31 43/123/31
f 43/124/32 44/125/32 48/126/32 47/127/32
f 47/128/33 48/124/33 46/121/33 45/129/33
f 45/130/34 46/131/34 42/132/34 41/133/34
f 43/134/35 47/135/35 45/136/35 41/137/35
f 48/138/36 44/139/36 42/140/36 46/141/36
o Cube.007
v -73.022743 14.581120 3.314411
v -73.022743 14.981120 3.314411
v -73.022743 14.581120 -54.346096
v -73.022743 14.981120 -54.346096
v 3.413544 14.581120 3.314411
v 3.413544 14.981120 3.314411
v 3.413544 14.581120 -54.346096
v 3.413544 14.981120 -54.346096
vn -1.0000 -0.0000 -0.0000
vn -0.0000 -0.0000 -1.0000
vn 1.0000 -0.0000 -0.0000
vn -0.0000 -0.0000 1.0000
vn -0.0000 -1.0000 -0.0000
vn -0.0000 1.0000 -0.0000
vt 0.296230 0.888689
vt 0.148115 0.888689
vt 0.148115 0.740575
vt 0.296230 0.740575
vt 0.444345 0.888689
vt 0.296230 0.740575
vt 0.444345 0.740575
vt 0.888689 0.444345
vt 0.740574 0.444345
vt 0.740574 0.296230
vt 0.888689 0.296230
vt 0.592460 0.888689
vt 0.444345 0.888689
vt 0.444345 0.740574
vt 0.592460 0.740574
vt 0.888689 0.444345
vt 0.888689 0.592460
vt 0.740575 0.592460
vt 0.740575 0.444345
vt 0.740575 0.740574
vt 0.740575 0.888689
s 0
f 49/142/37 50/143/37 52/144/37 51/145/37
f 51/146/38 52/142/38 56/147/38 55/148/38
f 55/149/39 56/150/39 54/151/39 53/152/39
f 53/153/40 54/154/40 50/155/40 49/156/40
f 51/157/41 55/158/41 53/159/41 49/160/41
f 56/161/42 52/162/42 50/153/42 54/156/42
