# Blender 4.4.1
# www.blender.org
o Cube.006
v -72.888557 -0.400000 -36.561089
v -72.888557 0.000000 -36.561089
v -72.888557 -0.400000 -46.258812
v -72.888557 0.000000 -46.258812
v 3.207481 -0.400000 -36.561089
v 3.207481 0.000000 -36.561089
v 3.207481 -0.400000 -46.258812
v 3.207481 0.000000 -46.258812
v -72.888557 -0.400000 -37.152084
v -72.888557 0.000000 -37.152084
v 3.207481 -0.400000 -37.152084
v 3.207481 0.000000 -37.152084
v -72.888557 0.033064 -37.152084
v -72.888557 0.033064 -46.258812
v 3.207481 0.033064 -46.258812
v 3.207481 0.033064 -37.152084
v -3.133858 -0.400000 -46.258812
v -9.475193 -0.400000 -46.258812
v -15.816528 -0.400000 -46.258812
v -22.157864 -0.400000 -46.258812
v -28.499199 -0.400000 -46.258812
v -34.840538 -0.400000 -46.258812
v -41.181877 -0.400000 -46.258812
v -47.523212 -0.400000 -46.258812
v -53.864548 -0.400000 -46.258812
v -60.205887 -0.400000 -46.258812
v -66.547218 -0.400000 -46.258812
v -66.547218 0.000000 -46.258812
v -60.205883 0.000000 -46.258812
v -53.864548 0.000000 -46.258812
v -47.523209 0.000000 -46.258812
v -41.181873 0.000000 -46.258812
v -34.840538 0.000000 -46.258812
v -28.499203 0.000000 -46.258812
v -22.157867 0.000000 -46.258812
v -15.816528 0.000000 -46.258812
v -9.475193 0.000000 -46.258812
v -3.133858 0.000000 -46.258812
v -66.547218 -0.400000 -36.561089
v -60.205883 -0.400000 -36.561089
v -53.864548 -0.400000 -36.561089
v -47.523209 -0.400000 -36.561089
v -41.181873 -0.400000 -36.561089
v -34.840538 -0.400000 -36.561089
v -28.499203 -0.400000 -36.561089
v -22.157867 -0.400000 -36.561089
v -15.816528 -0.400000 -36.561089
v -9.475193 -0.400000 -36.561089
v -3.133858 -0.400000 -36.561089
v -3.133858 0.000000 -36.561089
v -9.475193 0.000000 -36.561089
v -15.816528 0.000000 -36.561089
v -22.157864 0.000000 -36.561089
v -28.499199 0.000000 -36.561089
v -34.840538 0.000000 -36.561089
v -41.181877 0.000000 -36.561089
v -47.523212 0.000000 -36.561089
v -53.864548 0.000000 -36.561089
v -60.205887 0.000000 -36.561089
v -66.547218 0.000000 -36.561089
v -66.547218 0.000000 -37.152084
v -60.205883 0.000000 -37.152084
v -53.864548 0.000000 -37.152084
v -47.523209 0.000000 -37.152084
v -41.181873 0.000000 -37.152084
v -34.840538 0.000000 -37.152084
v -28.499203 0.000000 -37.152084
v -22.157867 0.000000 -37.152084
v -15.816528 0.000000 -37.152084
v -9.475193 0.000000 -37.152084
v -3.133858 0.000000 -37.152084
v -3.133858 -0.400000 -37.152084
v -9.475193 -0.400000 -37.152084
v -15.816528 -0.400000 -37.152084
v -22.157864 -0.400000 -37.152084
v -28.499199 -0.400000 -37.152084
v -34.840538 -0.400000 -37.152084
v -41.181877 -0.400000 -37.152084
v -47.523212 -0.400000 -37.152084
v -53.864548 -0.400000 -37.152084
v -60.205887 -0.400000 -37.152084
v -66.547218 -0.400000 -37.152084
v -66.547218 0.033064 -46.258812
v -60.205883 0.033064 -46.258812
v -53.864548 0.033064 -46.258812
v -47.523209 0.033064 -46.258812
v -41.181873 0.033064 -46.258812
v -34.840538 0.033064 -46.258812
v -28.499203 0.033064 -46.258812
v -22.157867 0.033064 -46.258812
v -15.816528 0.033064 -46.258812
v -9.475193 0.033064 -46.258812
v -3.133858 0.033064 -46.258812
v -66.547218 0.033064 -37.152084
v -60.205883 0.033064 -37.152084
v -53.864548 0.033064 -37.152084
v -47.523209 0.033064 -37.152084
v -41.181873 0.033064 -37.152084
v -34.840538 0.033064 -37.152084
v -28.499203 0.033064 -37.152084
v -22.157867 0.033064 -37.152084
v -15.816528 0.033064 -37.152084
v -9.475193 0.033064 -37.152084
v -3.133858 0.033064 -37.152084
v -72.846840 10.459176 -2.370159
v -72.846840 12.509026 -5.920605
v -72.846840 9.856373 -2.718189
v -72.846840 11.906222 -6.268635
v 3.203285 10.459176 -2.370159
v 3.203285 12.509026 -5.920605
v 3.203285 9.856373 -2.718189
v 3.203285 11.906222 -6.268635
v -72.846840 5.787815 -2.047829
v -72.846840 9.887514 -2.047829
v -72.846840 5.787815 -2.743885
v -72.846840 9.887514 -2.743885
v 3.203285 5.787815 -2.047829
v 3.203285 9.887514 -2.047829
v 3.203285 5.787815 -2.743885
v 3.203285 9.887514 -2.743885
v -73.583633 0.015384 -46.264839
v -73.583633 12.485203 -46.264839
v -72.887573 0.015384 -46.264839
v -72.887573 12.485203 -46.264839
v -73.583633 0.015384 4.954418
v -73.583633 12.485203 4.954418
v -72.887573 0.015384 4.954418
v -72.887573 12.485203 4.954418
v 3.200264 0.015384 -46.264839
v 3.200264 12.485203 -46.264839
v 3.896324 0.015384 -46.264839
v 3.896324 12.485203 -46.264839
v 3.200272 0.015384 4.954418
v 3.200272 12.485203 4.954418
v 3.896324 0.015384 4.954418
v 3.896324 12.485203 4.954418
v 3.379265 0.004780 -46.939411
v 3.379265 12.474598 -46.939411
v 3.379265 0.004780 -46.243351
v 3.379265 12.474598 -46.243351
v -72.974274 0.004780 -46.939400
v -72.974274 12.474598 -46.939400
v -72.974274 0.004780 -46.243340
v -72.974274 12.474598 -46.243340
vn -1.0000 -0.0000 -0.0000
vn -0.0000 -0.0000 -1.0000
vn 1.0000 -0.0000 -0.0000
vn -0.0000 -0.0000 1.0000
vn -0.0000 -1.0000 -0.0000
vn -0.0000 1.0000 -0.0000
vn -0.0000 -0.8660 -0.5000
vn -0.0000 0.8660 0.5000
vn -0.0000 -0.5000 0.8660
vn -0.0000 0.5000 -0.8660
vt 0.375000 0.015235
vt 0.625000 0.015235
vt 0.625000 0.250000
vt 0.375000 0.250000
vt 0.375000 0.479167
vt 0.625000 0.479167
vt 0.625000 0.500000
vt 0.375000 0.500000
vt 0.375000 0.734765
vt 0.625000 0.734765
vt 0.625000 0.750000
vt 0.375000 0.750000
vt 0.375000 0.979167
vt 0.625000 0.979167
vt 0.625000 1.000000
vt 0.375000 1.000000
vt 0.354167 0.734765
vt 0.354167 0.750000
vt 0.000717 0.983871
vt 0.249355 0.983871
vt 0.249355 0.999107
vt 0.000717 0.999107
vt 0.354167 0.500000
vt 0.375000 0.000000
vt 0.625000 0.000000
vt 0.501594 0.667530
vt 0.750133 0.667530
vt 0.750133 0.999398
vt 0.501594 0.999398
vt 0.625000 0.270833
vt 0.625000 0.270833
vt 0.645833 0.734765
vt 0.875000 0.734765
vt 0.854167 0.734765
vt 0.854167 0.734765
vt 0.833333 0.734765
vt 0.833333 0.734765
vt 0.812500 0.734765
vt 0.791667 0.734765
vt 0.791667 0.734765
vt 0.770833 0.734765
vt 0.750000 0.734765
vt 0.729167 0.734765
vt 0.729167 0.734765
vt 0.708333 0.734765
vt 0.687500 0.734765
vt 0.666667 0.734765
vt 0.625000 0.458333
vt 0.625000 0.437500
vt 0.625000 0.416667
vt 0.625000 0.395833
vt 0.625000 0.395833
vt 0.625000 0.375000
vt 0.625000 0.354167
vt 0.625000 0.354167
vt 0.625000 0.333333
vt 0.625000 0.333333
vt 0.625000 0.312500
vt 0.625000 0.291667
vt 0.502081 0.668864
vt 0.749085 0.668864
vt 0.749085 0.998717
vt 0.502081 0.998717
vt 0.501296 0.667296
vt 0.750299 0.667296
vt 0.750299 0.999530
vt 0.501296 0.999530
vt 0.501417 0.667384
vt 0.750055 0.667384
vt 0.750055 0.999741
vt 0.501417 0.999741
vt 0.501267 0.667742
vt 0.749905 0.667742
vt 0.749905 0.999611
vt 0.501267 0.999611
vt 0.501681 0.667811
vt 0.750220 0.667811
vt 0.750220 0.999518
vt 0.501681 0.999518
vt 0.501362 0.667459
vt 0.750045 0.667459
vt 0.750045 0.999566
vt 0.501362 0.999566
vt 0.501422 0.667583
vt 0.750351 0.667583
vt 0.750351 0.999453
vt 0.501422 0.999453
vt 0.501537 0.667543
vt 0.750298 0.667543
vt 0.750298 0.999488
vt 0.501537 0.999488
vt 0.501545 0.668429
vt 0.750035 0.668429
vt 0.750035 0.999403
vt 0.501545 0.999403
vt 0.501646 0.667763
vt 0.750112 0.667763
vt 0.750112 0.999403
vt 0.501646 0.999403
vt 0.501479 0.668555
vt 0.749713 0.668555
vt 0.749713 0.999611
vt 0.501479 0.999611
vt 0.125000 0.500000
vt 0.145833 0.500000
vt 0.145833 0.734765
vt 0.125000 0.734765
vt 0.166667 0.500000
vt 0.166667 0.734765
vt 0.187500 0.500000
vt 0.187500 0.734765
vt 0.208333 0.500000
vt 0.208333 0.734765
vt 0.229167 0.500000
vt 0.229167 0.734765
vt 0.250000 0.500000
vt 0.250000 0.734765
vt 0.270833 0.500000
vt 0.270833 0.734765
vt 0.291667 0.500000
vt 0.291667 0.734765
vt 0.312500 0.500000
vt 0.312500 0.734765
vt 0.333333 0.500000
vt 0.333333 0.734765
vt 0.000307 0.984267
vt 0.249571 0.984267
vt 0.249571 0.999502
vt 0.000307 0.999502
vt 0.000769 0.983917
vt 0.248920 0.983917
vt 0.248920 0.999152
vt 0.000769 0.999152
vt 0.000801 0.983536
vt 0.248952 0.983536
vt 0.248952 0.998771
vt 0.000801 0.998771
vt 0.000415 0.984511
vt 0.249571 0.984511
vt 0.249571 0.999747
vt 0.000415 0.999747
vt 0.000395 0.984512
vt 0.249033 0.984511
vt 0.249033 0.999747
vt 0.000395 0.999747
vt 0.000009 0.984511
vt 0.249472 0.984512
vt 0.249472 0.999747
vt 0.000009 0.999747
vt 0.000517 0.984208
vt 0.249007 0.984208
vt 0.249007 0.999443
vt 0.000517 0.999443
vt 0.000272 0.984579
vt 0.249536 0.984579
vt 0.249536 0.999814
vt 0.000272 0.999814
vt 0.000404 0.984447
vt 0.249286 0.984447
vt 0.249286 0.999682
vt 0.000404 0.999682
vt 0.000293 0.984511
vt 0.249295 0.984512
vt 0.249295 0.999747
vt 0.000293 0.999747
vt 0.000769 0.984585
vt 0.249452 0.984585
vt 0.249452 0.999820
vt 0.000769 0.999820
vt 0.145833 0.750000
vt 0.125000 0.750000
vt 0.166667 0.750000
vt 0.187500 0.750000
vt 0.208333 0.750000
vt 0.229167 0.750000
vt 0.250000 0.750000
vt 0.270833 0.750000
vt 0.291667 0.750000
vt 0.312500 0.750000
vt 0.333333 0.750000
vt 0.625000 0.770833
vt 0.375000 0.770833
vt 0.625000 0.791667
vt 0.375000 0.791667
vt 0.625000 0.812500
vt 0.375000 0.812500
vt 0.625000 0.833333
vt 0.375000 0.833333
vt 0.625000 0.854167
vt 0.375000 0.854167
vt 0.625000 0.875000
vt 0.375000 0.875000
vt 0.625000 0.895833
vt 0.375000 0.895833
vt 0.625000 0.916667
vt 0.375000 0.916667
vt 0.625000 0.937500
vt 0.375000 0.937500
vt 0.625000 0.958333
vt 0.375000 0.958333
vt 0.375000 0.270833
vt 0.375000 0.291667
vt 0.375000 0.312500
vt 0.375000 0.333333
vt 0.375000 0.354167
vt 0.375000 0.375000
vt 0.375000 0.395833
vt 0.375000 0.416667
vt 0.375000 0.437500
vt 0.375000 0.458333
vt 0.500038 0.335404
vt 0.500014 0.999359
vt -0.000596 0.996724
vt -0.000571 0.332769
vt 0.875000 0.500000
vt 0.875000 0.750000
vt 0.500026 0.335387
vt 0.500026 0.999343
vt -0.000584 0.996741
vt -0.000584 0.332785
vt 0.620351 0.342873
vt 0.620351 0.496182
vt 0.504759 0.495581
vt 0.504759 0.342272
vt 0.500969 0.333015
vt 0.625332 0.333015
vt 0.625332 0.498583
vt 0.500969 0.498583
s 0
f 9/1/1 10/2/1 4/3/1 3/4/1
f 17/5/2 38/6/2 8/7/2 7/8/2
f 11/9/3 12/10/3 6/11/3 5/12/3
f 39/13/4 60/14/4 2/15/4 1/16/4
f 72/17/5 11/9/5 5/12/5 49/18/5
f 61/19/6 10/20/6 2/21/6 60/22/6
f 12/10/3 8/7/3 15/7/3 16/10/3
f 17/23/5 7/8/5 11/9/5 72/17/5
f 7/8/3 8/7/3 12/10/3 11/9/3
f 1/24/1 2/25/1 10/2/1 9/1/1
f 83/26/6 14/27/6 13/28/6 94/29/6
f 4/3/1 10/2/1 13/2/1 14/3/1
f 28/30/2 4/3/2 14/3/2 83/31/2
f 71/32/4 12/10/4 16/10/4 104/32/4
f 10/33/4 61/34/4 94/35/4 13/33/4
f 61/34/4 62/36/4 95/37/4 94/35/4
f 62/36/4 63/38/4 96/38/4 95/37/4
f 63/38/4 64/39/4 97/40/4 96/38/4
f 64/39/4 65/41/4 98/41/4 97/40/4
f 65/41/4 66/42/4 99/42/4 98/41/4
f 66/42/4 67/43/4 100/44/4 99/42/4
f 67/43/4 68/45/4 101/45/4 100/44/4
f 68/45/4 69/46/4 102/46/4 101/45/4
f 69/46/4 70/47/4 103/47/4 102/46/4
f 70/47/4 71/32/4 104/32/4 103/47/4
f 8/7/2 38/6/2 93/6/2 15/7/2
f 38/6/2 37/48/2 92/48/2 93/6/2
f 37/48/2 36/49/2 91/49/2 92/48/2
f 36/49/2 35/50/2 90/50/2 91/49/2
f 35/50/2 34/51/2 89/52/2 90/50/2
f 34/51/2 33/53/2 88/53/2 89/52/2
f 33/53/2 32/54/2 87/55/2 88/53/2
f 32/54/2 31/56/2 86/57/2 87/55/2
f 31/56/2 30/58/2 85/58/2 86/57/2
f 30/58/2 29/59/2 84/59/2 85/58/2
f 29/59/2 28/30/2 83/31/2 84/59/2
f 15/60/6 93/61/6 104/62/6 16/63/6
f 93/64/6 92/65/6 103/66/6 104/67/6
f 92/68/6 91/69/6 102/70/6 103/71/6
f 91/72/6 90/73/6 101/74/6 102/75/6
f 90/76/6 89/77/6 100/78/6 101/79/6
f 89/80/6 88/81/6 99/82/6 100/83/6
f 88/84/6 87/85/6 98/86/6 99/87/6
f 87/88/6 86/89/6 97/90/6 98/91/6
f 86/92/6 85/93/6 96/94/6 97/95/6
f 85/96/6 84/97/6 95/98/6 96/99/6
f 84/100/6 83/101/6 94/102/6 95/103/6
f 3/104/5 27/105/5 82/106/5 9/107/5
f 27/105/5 26/108/5 81/109/5 82/106/5
f 26/108/5 25/110/5 80/111/5 81/109/5
f 25/110/5 24/112/5 79/113/5 80/111/5
f 24/112/5 23/114/5 78/115/5 79/113/5
f 23/114/5 22/116/5 77/117/5 78/115/5
f 22/116/5 21/118/5 76/119/5 77/117/5
f 21/118/5 20/120/5 75/121/5 76/119/5
f 20/120/5 19/122/5 74/123/5 75/121/5
f 19/122/5 18/124/5 73/125/5 74/123/5
f 18/124/5 17/23/5 72/17/5 73/125/5
f 12/126/6 71/127/6 50/128/6 6/129/6
f 71/130/6 70/131/6 51/132/6 50/133/6
f 70/134/6 69/135/6 52/136/6 51/137/6
f 69/138/6 68/139/6 53/140/6 52/141/6
f 68/142/6 67/143/6 54/144/6 53/145/6
f 67/146/6 66/147/6 55/148/6 54/149/6
f 66/150/6 65/151/6 56/152/6 55/153/6
f 65/154/6 64/155/6 57/156/6 56/157/6
f 64/158/6 63/159/6 58/160/6 57/161/6
f 63/162/6 62/163/6 59/164/6 58/165/6
f 62/166/6 61/167/6 60/168/6 59/169/6
f 9/107/5 82/106/5 39/170/5 1/171/5
f 82/106/5 81/109/5 40/172/5 39/170/5
f 81/109/5 80/111/5 41/173/5 40/172/5
f 80/111/5 79/113/5 42/174/5 41/173/5
f 79/113/5 78/115/5 43/175/5 42/174/5
f 78/115/5 77/117/5 44/176/5 43/175/5
f 77/117/5 76/119/5 45/177/5 44/176/5
f 76/119/5 75/121/5 46/178/5 45/177/5
f 75/121/5 74/123/5 47/179/5 46/178/5
f 74/123/5 73/125/5 48/180/5 47/179/5
f 73/125/5 72/17/5 49/18/5 48/180/5
f 5/12/4 6/11/4 50/181/4 49/182/4
f 49/182/4 50/181/4 51/183/4 48/184/4
f 48/184/4 51/183/4 52/185/4 47/186/4
f 47/186/4 52/185/4 53/187/4 46/188/4
f 46/188/4 53/187/4 54/189/4 45/190/4
f 45/190/4 54/189/4 55/191/4 44/192/4
f 44/192/4 55/191/4 56/193/4 43/194/4
f 43/194/4 56/193/4 57/195/4 42/196/4
f 42/196/4 57/195/4 58/197/4 41/198/4
f 41/198/4 58/197/4 59/199/4 40/200/4
f 40/200/4 59/199/4 60/14/4 39/13/4
f 3/4/2 4/3/2 28/30/2 27/201/2
f 27/201/2 28/30/2 29/59/2 26/202/2
f 26/202/2 29/59/2 30/58/2 25/203/2
f 25/203/2 30/58/2 31/56/2 24/204/2
f 24/204/2 31/56/2 32/54/2 23/205/2
f 23/205/2 32/54/2 33/53/2 22/206/2
f 22/206/2 33/53/2 34/51/2 21/207/2
f 21/207/2 34/51/2 35/50/2 20/208/2
f 20/208/2 35/50/2 36/49/2 19/209/2
f 19/209/2 36/49/2 37/48/2 18/210/2
f 18/210/2 37/48/2 38/6/2 17/5/2
f 105/24/1 106/25/1 108/3/1 107/4/1
f 107/211/7 108/212/7 112/213/7 111/214/7
f 111/8/3 112/7/3 110/11/3 109/12/3
f 109/12/8 110/11/8 106/15/8 105/16/8
f 107/104/9 111/8/9 109/12/9 105/171/9
f 112/7/10 108/215/10 106/216/10 110/11/10
f 113/24/1 114/25/1 116/3/1 115/4/1
f 115/217/2 116/218/2 120/219/2 119/220/2
f 119/8/3 120/7/3 118/11/3 117/12/3
f 117/12/4 118/11/4 114/15/4 113/16/4
f 115/104/5 119/8/5 117/12/5 113/171/5
f 120/7/6 116/215/6 114/216/6 118/11/6
f 121/24/2 122/25/2 124/3/2 123/4/2
f 123/221/3 124/222/3 128/223/3 127/224/3
f 127/8/4 128/7/4 126/11/4 125/12/4
f 125/12/1 126/11/1 122/15/1 121/16/1
f 123/104/5 127/8/5 125/12/5 121/171/5
f 128/7/6 124/215/6 122/216/6 126/11/6
f 129/24/2 130/25/2 132/3/2 131/4/2
f 131/221/3 132/222/3 136/223/3 135/224/3
f 135/8/4 136/7/4 134/11/4 133/12/4
f 133/225/1 134/226/1 130/227/1 129/228/1
f 131/104/5 135/8/5 133/12/5 129/171/5
f 136/7/6 132/215/6 130/216/6 134/11/6
f 137/24/3 138/25/3 140/3/3 139/4/3
f 139/221/4 140/222/4 144/223/4 143/224/4
f 143/8/1 144/7/1 142/11/1 141/12/1
f 141/12/2 142/11/2 138/15/2 137/16/2
f 139/104/5 143/8/5 141/12/5 137/171/5
f 144/7/6 140/215/6 138/216/6 142/11/6
